The Tale of Despereaux 
http://www.imdb.com/title/tt0420238/


Source  :

The Tale of Despereaux (2008) 1080p BluRay DTS x264-DON

Info :
ID                               : 1
Format                           : AVC
Format/Info                      : Advanced Video Codec
Format profile                   : Baseline@L2.0
Format settings, CABAC           : No
Format settings, ReFrames        : 3 frames
Codec ID                         : avc1
Codec ID/Info                    : Advanced Video Coding
Duration                         : 1h 33mn
Bit rate mode                    : Variable
Bit rate                         : 400 Kbps
Width                            : 480 pixels
Height                           : 208 pixels
Display aspect ratio             : 2.35:1
Frame rate mode                  : Variable
Frame rate                       : 23.976 fps
Minimum frame rate               : 23.810 fps
Maximum frame rate               : 24.390 fps
Color space                      : YUV
Chroma subsampling               : 4:2:0
Bit depth                        : 8 bits
Scan type                        : Progressive
Bits/(Pixel*Frame)               : 0.167
Stream size                      : 268 MiB (75%)
Writing library                  : x264 core 79

ID                               : 2
Format                           : AAC
Format/Info                      : Advanced Audio Codec
Format version                   : Version 4
Format profile                   : LC
Format settings, SBR             : No
Codec ID                         : 40
Duration                         : 1h 33mn
Bit rate mode                    : Variable
Bit rate                         : 128 Kbps
Maximum bit rate                 : 240 Kbps
Channel(s)                       : 2 channels
Channel positions                : Front: L R
Sampling rate                    : 48.0 KHz
Stream size                      : 85.5 MiB (24%)
Language                         : English

Screens : 
http://img28.imageshack.us/img28/9082/vlcsnap00001t.png 
http://img692.imageshack.us/img692/9899/vlcsnap00002tw.png 
http://img231.imageshack.us/img231/5117/vlcsnap00003li.png 
http://img375.imageshack.us/img375/2807/vlcsnap00004y.png 
http://img227.imageshack.us/img227/8225/vlcsnap00005n.png 
http://img145.imageshack.us/img145/5144/vlcsnap00006yl.png 
http://img191.imageshack.us/img191/7086/vlcsnap00007d.png 
http://img163.imageshack.us/img163/9682/vlcsnap00008s.png




PLEASE LET THE TORRENT SEED AND SHARE IT WITH ALL YOU KNOW!

Let me know what I can do to be your trusted source of Handheld videos. 
http://thepiratebay.org/user/on.off.on/ -OOO